<mxfile host="www.draw.io" modified="2019-11-04T23:20:16.128Z" agent="Mozilla/5.0 (Windows NT 10.0; Win64; x64; rv:70.0) Gecko/20100101 Firefox/70.0" etag="xT-EYpXi1gHYpQasAKXI" version="12.2.0" type="github" pages="1">
  <diagram id="JkhLGpLczkm5lLYZ0Tum" name="Page-1">
    <mxGraphModel dx="1024" dy="571" grid="1" gridSize="10" guides="1" tooltips="1" connect="1" arrows="1" fold="1" page="1" pageScale="1" pageWidth="827" pageHeight="1169" math="0" shadow="0">
      <root>
        <mxCell id="0"/>
        <mxCell id="1" parent="0"/>
        <mxCell id="D1dGqr2h0ZZoKGAoGRAR-1" value="High Level Architecture Design" style="text;html=1;strokeColor=none;fillColor=none;align=center;verticalAlign=middle;whiteSpace=wrap;rounded=0;fontStyle=1;fontSize=16;" parent="1" vertex="1">
          <mxGeometry x="240" y="40" width="370" height="40" as="geometry"/>
        </mxCell>
        <mxCell id="D1dGqr2h0ZZoKGAoGRAR-7" style="edgeStyle=orthogonalEdgeStyle;rounded=0;orthogonalLoop=1;jettySize=auto;html=1;fontSize=16;exitX=1.02;exitY=0.174;exitDx=0;exitDy=0;exitPerimeter=0;entryX=-0.003;entryY=0.177;entryDx=0;entryDy=0;entryPerimeter=0;" parent="1" source="D1dGqr2h0ZZoKGAoGRAR-3" target="D1dGqr2h0ZZoKGAoGRAR-4" edge="1">
          <mxGeometry relative="1" as="geometry"/>
        </mxCell>
        <mxCell id="D1dGqr2h0ZZoKGAoGRAR-8" value="Query (Get)" style="text;html=1;resizable=0;points=[];align=center;verticalAlign=middle;labelBackgroundColor=#ffffff;fontSize=16;" parent="D1dGqr2h0ZZoKGAoGRAR-7" vertex="1" connectable="0">
          <mxGeometry x="0.1138" relative="1" as="geometry">
            <mxPoint as="offset"/>
          </mxGeometry>
        </mxCell>
        <mxCell id="D1dGqr2h0ZZoKGAoGRAR-9" style="edgeStyle=orthogonalEdgeStyle;rounded=0;orthogonalLoop=1;jettySize=auto;html=1;entryX=0.014;entryY=0.35;entryDx=0;entryDy=0;entryPerimeter=0;fontSize=16;" parent="1" source="D1dGqr2h0ZZoKGAoGRAR-3" target="D1dGqr2h0ZZoKGAoGRAR-4" edge="1">
          <mxGeometry relative="1" as="geometry">
            <Array as="points">
              <mxPoint x="180" y="190"/>
              <mxPoint x="180" y="190"/>
            </Array>
          </mxGeometry>
        </mxCell>
        <mxCell id="D1dGqr2h0ZZoKGAoGRAR-10" value="Mutations (Write)" style="text;html=1;resizable=0;points=[];align=center;verticalAlign=middle;labelBackgroundColor=#ffffff;fontSize=16;" parent="D1dGqr2h0ZZoKGAoGRAR-9" vertex="1" connectable="0">
          <mxGeometry x="0.1726" y="-1" relative="1" as="geometry">
            <mxPoint as="offset"/>
          </mxGeometry>
        </mxCell>
        <mxCell id="D1dGqr2h0ZZoKGAoGRAR-3" value="&lt;div&gt;Frontend (Vue.js, &lt;br&gt;Apollo, TypeScript)&lt;/div&gt;" style="rounded=0;whiteSpace=wrap;html=1;fontSize=16;" parent="1" vertex="1">
          <mxGeometry x="40" y="120" width="120" height="230" as="geometry"/>
        </mxCell>
        <mxCell id="D1dGqr2h0ZZoKGAoGRAR-16" style="edgeStyle=orthogonalEdgeStyle;rounded=0;orthogonalLoop=1;jettySize=auto;html=1;fontSize=16;" parent="1" source="D1dGqr2h0ZZoKGAoGRAR-4" target="D1dGqr2h0ZZoKGAoGRAR-3" edge="1">
          <mxGeometry relative="1" as="geometry">
            <Array as="points">
              <mxPoint x="210" y="290"/>
              <mxPoint x="210" y="290"/>
            </Array>
          </mxGeometry>
        </mxCell>
        <mxCell id="D1dGqr2h0ZZoKGAoGRAR-17" value="JSON" style="text;html=1;resizable=0;points=[];align=center;verticalAlign=middle;labelBackgroundColor=#ffffff;fontSize=16;" parent="D1dGqr2h0ZZoKGAoGRAR-16" vertex="1" connectable="0">
          <mxGeometry x="-0.25" y="-1" relative="1" as="geometry">
            <mxPoint as="offset"/>
          </mxGeometry>
        </mxCell>
        <mxCell id="D1dGqr2h0ZZoKGAoGRAR-4" value="&lt;div&gt;&lt;b&gt;GraphQL API Server&lt;/b&gt;&lt;/div&gt;&lt;div&gt;&lt;br&gt;&lt;/div&gt;&lt;div&gt;Endpoint: /graphql&lt;br&gt;&lt;/div&gt;" style="rounded=0;whiteSpace=wrap;html=1;fontSize=16;" parent="1" vertex="1">
          <mxGeometry x="360" y="120" width="120" height="200" as="geometry"/>
        </mxCell>
        <mxCell id="D1dGqr2h0ZZoKGAoGRAR-14" style="edgeStyle=orthogonalEdgeStyle;rounded=0;orthogonalLoop=1;jettySize=auto;html=1;entryX=-0.02;entryY=0.554;entryDx=0;entryDy=0;entryPerimeter=0;fontSize=16;startArrow=classic;startFill=1;" parent="1" source="D1dGqr2h0ZZoKGAoGRAR-12" target="D1dGqr2h0ZZoKGAoGRAR-13" edge="1">
          <mxGeometry relative="1" as="geometry">
            <Array as="points">
              <mxPoint x="800" y="220"/>
              <mxPoint x="800" y="222"/>
            </Array>
          </mxGeometry>
        </mxCell>
        <mxCell id="D1dGqr2h0ZZoKGAoGRAR-15" value="Read &amp;amp; Write" style="text;html=1;resizable=0;points=[];align=center;verticalAlign=middle;labelBackgroundColor=#ffffff;fontSize=16;" parent="D1dGqr2h0ZZoKGAoGRAR-14" vertex="1" connectable="0">
          <mxGeometry x="0.175" y="1" relative="1" as="geometry">
            <mxPoint as="offset"/>
          </mxGeometry>
        </mxCell>
        <mxCell id="5Q9TsUokd5rhiFLYnxGn-1" style="edgeStyle=orthogonalEdgeStyle;rounded=0;orthogonalLoop=1;jettySize=auto;html=1;startArrow=classic;startFill=1;" parent="1" source="D1dGqr2h0ZZoKGAoGRAR-12" target="D1dGqr2h0ZZoKGAoGRAR-4" edge="1">
          <mxGeometry relative="1" as="geometry"/>
        </mxCell>
        <mxCell id="D1dGqr2h0ZZoKGAoGRAR-12" value="&lt;div&gt;&lt;b&gt;Backend (DJango Models)&lt;/b&gt;&lt;/div&gt;&lt;div&gt;&lt;b&gt;&lt;br&gt;&lt;/b&gt;&lt;/div&gt;&lt;div&gt;&lt;b&gt;Logic &lt;br&gt;&lt;/b&gt;&lt;/div&gt;&lt;div&gt;&lt;b&gt;&lt;br&gt;&lt;/b&gt;&lt;/div&gt;&lt;div&gt;&lt;b&gt;AuthN/AuthZ&lt;br&gt;&lt;/b&gt;&lt;/div&gt;&lt;div&gt;&lt;br&gt;&lt;/div&gt;&lt;div&gt;&lt;br&gt;&lt;/div&gt;" style="rounded=0;whiteSpace=wrap;html=1;fontSize=16;verticalAlign=top;" parent="1" vertex="1">
          <mxGeometry x="600" y="120" width="120" height="480" as="geometry"/>
        </mxCell>
        <mxCell id="D1dGqr2h0ZZoKGAoGRAR-13" value="PostgreSQL" style="verticalLabelPosition=bottom;html=1;verticalAlign=top;align=center;strokeColor=none;fillColor=#00BEF2;shape=mxgraph.azure.database;fontSize=16;" parent="1" vertex="1">
          <mxGeometry x="930" y="150" width="100" height="130" as="geometry"/>
        </mxCell>
      </root>
    </mxGraphModel>
  </diagram>
</mxfile>
